<svg height="512pt" viewBox="0 0 512 512" width="512pt" xmlns="http://www.w3.org/2000/svg"><path d="m494.933594 221.867188h-.582032c-.414062-13.921876-5.601562-27.273438-14.683593-37.828126-13.167969-12.339843-30.09375-19.902343-48.070313-21.480468-5.875-7.984375-10.421875-16.867188-13.464844-26.308594 2.207032-2.660156 4.691407-5.078125 7.40625-7.21875 7.59375-5.21875 12.71875-13.324219 14.175782-22.425781 10.230468-4.859375 17.699218-14.097657 20.308594-25.121094 2.378906-16.519531-.316407-26.375-7.96875-29.285156-2.695313-.976563-5.609376-1.164063-8.40625-.539063-.042969-2.902344-.136719-5.972656-.332032-9.472656-1.75-31.863281-36.992187-41.523438-55.691406-42.1875h-7.558594c-18.390625.664062-53.632812 10.324219-55.414062 42.1875-.199219 3.492188-.292969 6.570312-.335938 9.472656-2.742187-.625-5.613281-.445312-8.257812.511719-7.75 2.917969-10.488282 12.800781-8.089844 29.664063 2.730469 10.859374 10.167969 19.933593 20.28125 24.746093 1.460938 9.097657 6.582031 17.203125 14.175781 22.425781 2.71875 2.136719 5.199219 4.554688 7.40625 7.21875-3.03125 9.433594-7.570312 18.316407-13.429687 26.308594-17.960938 1.574219-34.875 9.125-48.035156 21.445313-9.105469 10.566406-14.300782 23.941406-14.71875 37.886719h-.582032c-9.425781 0-17.066406 7.640624-17.066406 17.066406.042969 37.683594 30.582031 68.222656 68.265625 68.265625h51.199219v36.53125l-72.53125 24.175781c-7.578125-14.941406-24.953125-22.085938-40.847656-16.792969-15.898438 5.289063-25.527344 21.417969-22.640626 37.921875l-102.910156 34.304688v-56.40625h51.199219c37.683594-.042969 68.222656-30.582032 68.265625-68.265625 0-9.425781-7.640625-17.066407-17.066406-17.066407h-.582032c-.414062-13.921874-5.601562-27.273437-14.683593-37.828124-13.167969-12.339844-30.09375-19.902344-48.070313-21.480469-5.875-7.984375-10.421875-16.871094-13.464844-26.308594 2.207032-2.660156 4.691407-5.078125 7.40625-7.21875 7.59375-5.222656 12.71875-13.324219 14.175782-22.425781 10.230468-4.859375 17.699218-14.101563 20.308594-25.121094 2.378906-16.519531-.316407-26.378906-7.96875-29.285156-2.695313-.976563-5.609376-1.164063-8.40625-.539063 0-2.902343-.136719-5.972656-.332032-9.472656-1.75-31.863281-36.992187-41.523437-55.691406-42.1875h-7.558594c-18.390625.664063-53.632812 10.324219-55.414062 42.1875-.199219 3.492187-.292969 6.5625-.335938 9.472656-2.746094-.621093-5.609375-.441406-8.257812.511719-7.75 2.917969-10.488282 12.800781-8.089844 29.660156 2.730469 10.863282 10.167969 19.9375 20.28125 24.75 1.460938 9.097656 6.582031 17.203125 14.175781 22.425782 2.71875 2.132812 5.199219 4.554687 7.40625 7.21875-3.03125 9.441406-7.566406 18.335937-13.429687 26.332031-17.960938 1.574219-34.875 9.125-48.035156 21.445312-9.097657 10.5625-14.296876 23.925781-14.71875 37.863281h-.582032c-9.425781 0-17.066406 7.640626-17.066406 17.066407.0429688 37.683593 30.582031 68.222656 68.265625 68.265625h51.199219v56.40625c0 9.425781 7.644531 17.066406 17.070312 17.066406 1.839844.011719 3.675782-.277344 5.425782-.855469l104.21875-34.761719c.417968.527344.851562 1.046876 1.285156 1.558594v34.707032c-20.816406 9.875-34.097656 30.839843-34.132813 53.878906 0 9.425781 7.640625 17.066406 17.066407 17.066406h85.335937c9.425781 0 17.066406-7.640625 17.066406-17.066406-.03125-23.042969-13.316406-44.011719-34.132812-53.886719v-34.707031c5.332031-6.039063 8.339843-13.78125 8.480469-21.835938l73.863281-24.617187c6.882812-2.398438 11.5-8.878907 11.523437-16.164063v-36.523437h51.199219c37.683594-.042969 68.222656-30.582031 68.265625-68.265625 0-9.425782-7.640625-17.066406-17.066406-17.066406zm-273.585938 59.734374h-71.03125c12.460938-11.453124 21.847656-25.847656 27.304688-41.867187 12.539062 1.726563 24.261718 7.207031 33.621094 15.726563 6.164062 7.359374 9.71875 16.550781 10.105468 26.140624zm-114.347656-71.953124c4.128906 2.527343 8.898438 3.804687 13.738281 3.683593h14.507813c4.84375.125 9.621094-1.152343 13.753906-3.683593 2.453125 5.429687 5.25 10.699218 8.371094 15.777343-9.5625 2.800781-19.417969 4.46875-29.371094 4.972657-9.953125-.503907-19.816406-2.171876-29.378906-4.972657 3.117187-5.078125 5.910156-10.347656 8.359375-15.777343zm21 37.816406c10.140625-.382813 20.207031-1.914063 30.003906-4.570313-7.429687 13.96875-17.640625 26.269531-30.003906 36.144531-12.359375-9.875-22.574219-22.167968-30.019531-36.128906 9.800781 2.652344 19.871093 4.183594 30.019531 4.554688zm59.222656-109.003906c-.609375 2.171874-1.617187 4.210937-2.972656 6.015624.207031-1.117187.429688-2.226562.710938-3.539062.597656-2.722656 1.277343-5.871094 1.816406-9.984375.328125-.140625.644531-.296875.957031-.46875.011719 2.667969-.15625 5.332031-.511719 7.976563zm-118.957031-7.96875c.308594.175781.628906.324218.957031.453124.539063 4.121094 1.21875 7.269532 1.816406 9.992188.292969 1.3125.511719 2.429688.710938 3.558594-1.285156-1.722656-2.28125-3.640625-2.945312-5.683594-.371094-2.757812-.550782-5.539062-.539063-8.320312zm20.847656 25.171874c.109375-2.003906.222657-4.035156.222657-6.125-.0625-4.136718-.609376-8.253906-1.628907-12.261718-2.484375-11.289063-3.164062-22.898438-2.015625-34.398438 1.347656-24.304687 38.621094-26.078125 38.683594-26.078125h6.9375c.375 0 37.640625 1.773438 38.996094 26.078125 1.148437 11.5.46875 23.109375-2.015625 34.398438-1.019531 4.007812-1.566407 8.125-1.628907 12.261718 0 2.089844.113282 4.121094.222657 6.125 1.828125 7.546876-1.320313 15.421876-7.84375 19.628907-5.019531 4.023437-9.503907 8.675781-13.34375 13.839843-4.617188 5.855469-5.761719 7.101563-10.4375 7.101563h-14.507813c-4.675781 0-5.820312-1.246094-10.433594-7.101563-3.84375-5.164062-8.328124-9.816406-13.347656-13.839843-6.53125-4.203125-9.683594-12.078125-7.859375-19.628907zm-44.304687 99.765626c9.351562-8.507813 21.0625-13.976563 33.585937-15.695313 5.453125 16.019531 14.835938 30.414063 27.289063 41.867187h-71.03125c.398437-9.609374 3.96875-18.8125 10.15625-26.171874zm-27.742188 43.238281h221.867188c-.027344 28.265625-22.933594 51.171875-51.199219 51.199219h-119.46875c-28.265625-.027344-51.171875-22.933594-51.199219-51.199219zm256 68.265625c9.425782 0 17.066406 7.640625 17.066406 17.066406s-7.640624 17.066406-17.066406 17.066406c-9.425781 0-17.066406-7.640625-17.066406-17.066406s7.640625-17.066406 17.066406-17.066406zm42.667969 128h-85.335937c0-23.5625 19.105468-42.667969 42.667968-42.667969s42.667969 19.105469 42.667969 42.667969zm-42.667969-59.734375c-2.855468.023437-5.707031.253906-8.53125.683593v-18.960937c5.574219 1.617187 11.492188 1.617187 17.066406 0v18.960937c-2.824218-.429687-5.679687-.660156-8.535156-.683593zm204.28125-213.332031h-71.03125c12.460938-11.453126 21.847656-25.84375 27.304688-41.863282 12.539062 1.722656 24.261718 7.207032 33.621094 15.726563 6.164062 7.355469 9.71875 16.546875 10.105468 26.136719zm-114.347656-71.953126c4.128906 2.527344 8.898438 3.808594 13.738281 3.6875h14.507813c4.84375.125 9.621094-1.15625 13.753906-3.6875 2.453125 5.429688 5.25 10.699219 8.371094 15.777344-9.5625 2.800782-19.417969 4.46875-29.371094 4.976563-9.953125-.507813-19.816406-2.175781-29.378906-4.976563 3.117187-5.078125 5.910156-10.347656 8.359375-15.777344zm21 37.820313c10.140625-.382813 20.207031-1.917969 30.003906-4.574219-7.429687 13.96875-17.640625 26.269532-30.003906 36.148438-12.359375-9.878906-22.574219-22.171875-30.019531-36.132813 9.800781 2.65625 19.871093 4.183594 30.019531 4.558594zm59.222656-109.003906c-.613281 2.15625-1.621094 4.179687-2.972656 5.972656.207031-1.117187.429688-2.226563.710938-3.542969.597656-2.722656 1.277343-5.871094 1.816406-9.984375.324218-.125.644531-.265625.957031-.425781.011719 2.667969-.15625 5.335938-.511719 7.980469zm-118.957031-7.972657c.308594.175782.628906.328126.957031.460938.539063 4.113281 1.21875 7.261719 1.816406 9.984375.292969 1.3125.511719 2.433594.710938 3.558594-1.285156-1.722657-2.28125-3.640625-2.945312-5.683594-.371094-2.757813-.550782-5.539063-.539063-8.320313zm20.847656 25.175782c.109375-2.007813.222657-4.039063.222657-6.128906-.0625-4.136719-.609376-8.253907-1.628907-12.261719-2.484375-11.289063-3.164062-22.898438-2.015625-34.398438 1.347656-24.304687 38.621094-26.078125 38.683594-26.078125h6.9375c.375 0 37.640625 1.773438 38.996094 26.078125 1.148437 11.5.46875 23.109375-2.015625 34.398438-1.019531 4.007812-1.566407 8.125-1.628907 12.261719 0 2.089843.113282 4.121093.222657 6.128906 1.828125 7.542968-1.320313 15.417968-7.84375 19.625-5.019531 4.027344-9.503907 8.675781-13.34375 13.839844-4.617188 5.855468-5.761719 7.101562-10.4375 7.101562h-14.507813c-4.675781 0-5.820312-1.246094-10.433594-7.101562-3.84375-5.164063-8.328124-9.8125-13.347656-13.839844-6.53125-4.203125-9.683594-12.078125-7.859375-19.625zm-44.304687 99.761718c9.351562-8.503906 21.0625-13.976562 33.585937-15.691406 5.453125 16.015625 14.835938 30.410156 27.289063 41.863282h-71.03125c.398437-9.605469 3.96875-18.8125 10.15625-26.171876zm142.925781 94.4375h-119.46875c-28.265625-.027343-51.171875-22.933593-51.199219-51.199218h221.867188c-.027344 28.265625-22.933594 51.171875-51.199219 51.199218zm0 0"/></svg>