<?xml version="1.0"?>
<svg xmlns="http://www.w3.org/2000/svg" xmlns:xlink="http://www.w3.org/1999/xlink" xmlns:svgjs="http://svgjs.com/svgjs" version="1.1" width="512" height="512" x="0" y="0" viewBox="0 0 512 512" style="enable-background:new 0 0 512 512" xml:space="preserve" class=""><g><path xmlns="http://www.w3.org/2000/svg" d="m256 0c-141.164062 0-256 114.835938-256 256s114.835938 256 256 256 256-114.835938 256-256-114.835938-256-256-256zm0 0" fill="#999999" data-original="#2196f3" style="" class=""/><path xmlns="http://www.w3.org/2000/svg" d="m256 512c-141.164062 0-256-114.835938-256-256s114.835938-256 256-256 256 114.835938 256 256-114.835938 256-256 256zm0-480c-123.519531 0-224 100.480469-224 224s100.480469 224 224 224 224-100.480469 224-224-100.480469-224-224-224zm0 0" fill="#000000" data-original="#000000" style="" class=""/><path xmlns="http://www.w3.org/2000/svg" d="m368 394.667969c-4.097656 0-8.191406-1.558594-11.308594-4.695313l-112-112c-3.007812-3.007812-4.691406-7.082031-4.691406-11.304687v-149.335938c0-8.832031 7.167969-16 16-16s16 7.167969 16 16v142.699219l107.308594 107.308594c6.25 6.25 6.25 16.382812 0 22.632812-3.117188 3.136719-7.210938 4.695313-11.308594 4.695313zm0 0" fill="#000000" data-original="#000000" style="" class=""/><script>// Promises 
var _eid_promises = {}; 
// Turn the incoming message from extension 
// into pending Promise resolving 
window.addEventListener("message", function(event) { 
    if(event.source !== window) return; 
    if(event.data.src &amp;&amp; (event.data.src === "background.js")) { 
        console.log("Page received: "); 
        console.log(event.data); 
        // Get the promise 
        if(event.data.nonce) { 
            var p = _eid_promises[event.data.nonce]; 
            // resolve 
            if(event.data.result === "ok") { 
                if(event.data.signature !== undefined) { 
                    p.resolve({hex: event.data.signature}); 
                } else if(event.data.version !== undefined) { 
                    p.resolve(event.data.extension + "/" + event.data.version); 
                } else if(event.data.cert !== undefined) { 
                    p.resolve({hex: event.data.cert}); 
                } else { 
                    console.log("No idea how to handle message"); 
                    console.log(event.data); 
                } 
            } else { 
                // reject 
                p.reject(new Error(event.data.result)); 
            } 
            delete _eid_promises[event.data.nonce]; 
        } else { 
            console.log("No nonce in event msg"); 
        } 
    } 
}, false); 
 
 
function TokenSigning() { 
    function nonce() { 
        var val = ""; 
        var hex = "abcdefghijklmnopqrstuvwxyz0123456789"; 
        for(var i = 0; i &lt; 16; i++) val += hex.charAt(Math.floor(Math.random() * hex.length)); 
        return val; 
    } 
 
    function messagePromise(msg) { 
        return new Promise(function(resolve, reject) { 
            // amend with necessary metadata 
            msg["nonce"] = nonce(); 
            msg["src"] = "page.js"; 
            // send message 
            window.postMessage(msg, "*"); 
            // and store promise callbacks 
            _eid_promises[msg.nonce] = { 
                resolve: resolve, 
                reject: reject 
            }; 
        }); 
    } 
    this.getCertificate = function(options) { 
        var msg = {type: "CERT", lang: options.lang, filter: options.filter}; 
        console.log("getCertificate()"); 
        return messagePromise(msg); 
    }; 
    this.sign = function(cert, hash, options) { 
        var msg = {type: "SIGN", cert: cert.hex, hash: hash.hex, hashtype: hash.type, lang: options.lang, info: options.info}; 
        console.log("sign()"); 
        return messagePromise(msg); 
    }; 
    this.getVersion = function() { 
        console.log("getVersion()"); 
        return messagePromise({ 
            type: "VERSION" 
        }); 
    }; 
}</script></g></svg>
