<svg id="Capa_1" enable-background="new 0 0 511.078 511.078" height="512" viewBox="0 0 511.078 511.078" width="512" xmlns="http://www.w3.org/2000/svg"><g><path d="m506.27 359.137c-7.959-13.196-24.926-18.004-38.62-10.947l-14.413 7.425v-55.774c0-4.142-3.357-7.5-7.5-7.5s-7.5 3.358-7.5 7.5v63.501l-48.067 24.763c-3.676-13.228-13.526-23.906-26.243-28.719v-36.671c0-31.48-25.61-57.091-57.091-57.091s-57.092 25.611-57.092 57.091v10.535c-11.669-7.696-25.533-11.994-40.126-11.994h-20.608c-6.274 0-12.456.822-18.423 2.38v-122.741l136.247-91.89 131.402 88.622v70.251c0 4.142 3.357 7.5 7.5 7.5s7.5-3.358 7.5-7.5v-60.135l10.652 7.184c2.621 1.768 5.775 2.408 8.875 1.805 3.104-.603 5.786-2.379 7.551-4.999l15.285-22.664c3.647-5.409 2.215-12.777-3.194-16.425l-171.312-115.539c-8.663-5.842-19.855-5.842-28.517 0l-52.511 35.415v-39.937c6.966-2.937 11.868-9.834 11.868-17.855v-15.36c.001-10.68-8.688-19.368-19.368-19.368h-74.677c-10.679 0-19.367 8.688-19.367 19.368v15.359c0 8.022 4.903 14.919 11.868 17.855v22.985c0 4.142 3.357 7.5 7.5 7.5s7.5-3.358 7.5-7.5v-21.471h59.676v48.542l-59.676 40.248v-35.356c0-4.142-3.357-7.5-7.5-7.5s-7.5 3.358-7.5 7.5v45.471l-29.127 19.644c-5.408 3.648-6.841 11.017-3.193 16.426l15.283 22.661c1.767 2.622 4.449 4.398 7.553 5.001.761.148 1.524.221 2.283.221 2.333 0 4.614-.692 6.591-2.026l5.808-3.917v118.377c-5.461 2.822-10.594 6.33-15.249 10.508l-9.02 8.096h-13.322c-1.614-14.879-14.247-26.5-29.548-26.5h-80.345c-4.143 0-7.5 3.358-7.5 7.5s3.357 7.5 7.5 7.5h80.345c8.12 0 14.727 6.606 14.727 14.727v13.383h-95.072c-4.143 0-7.5 3.358-7.5 7.5s3.357 7.5 7.5 7.5h95.071v79.132c0 8.12-6.606 14.727-14.727 14.727h-80.344c-4.143 0-7.5 3.358-7.5 7.5s3.357 7.5 7.5 7.5h80.345c14.83 0 27.156-10.916 29.371-25.135h55.372l17.824 8.86c1.072.533 2.211.785 3.332.785 2.758 0 5.411-1.526 6.722-4.163 1.844-3.709.332-8.211-3.378-10.055l-19.401-9.644c-1.037-.516-2.18-.784-3.338-.784h-56.776v-85.333h16.016c1.85 0 3.634-.683 5.01-1.919l11.157-10.015c4.656-4.179 9.904-7.535 15.532-9.989.063-.025.125-.05.187-.077 7.178-3.099 14.967-4.737 22.933-4.737h20.607c21.732 0 41.432 11.994 51.408 31.301 1.288 2.492 3.858 4.057 6.663 4.057h81.072c15.429 0 27.98 12.552 27.98 27.98v3.941c0 2.434-1.979 4.413-4.413 4.413h-124.87c-4.143 0-7.5 3.358-7.5 7.5s3.357 7.5 7.5 7.5h124.87c10.485 0 19.034-8.361 19.38-18.764l82.81-42.661c6.705-3.455 15.01-1.101 18.906 5.359 3.905 6.475 2.101 14.927-4.108 19.242l-130.824 90.92c-31.894 22.165-73.312 25.195-108.09 7.908l-24.034-11.946c-3.711-1.844-8.211-.331-10.054 3.378-1.844 3.709-.332 8.211 3.378 10.055l24.034 11.946c17.097 8.498 35.597 12.692 54.03 12.692 24.352 0 48.585-7.322 69.296-21.715l130.824-90.92c12.685-8.813 16.37-26.078 8.394-39.304zm-352.749-339.769c0-2.409 1.959-4.368 4.367-4.368h74.677c2.408 0 4.368 1.959 4.368 4.368v15.359c0 2.409-1.96 4.368-4.368 4.368h-74.677c-2.408 0-4.367-1.959-4.367-4.368zm-9.502 181.353-11.742-17.411 168.688-113.77c3.566-2.405 8.175-2.405 11.741 0l168.688 113.77-11.742 17.411-156.203-105.347c-4.018-2.711-9.213-2.711-13.23 0l-141.304 95.3c-.014.009-.028.018-.041.028zm128.073 155.894c-2.175-3.63-4.64-7.023-7.349-10.165v-23.734c0-23.209 18.882-42.091 42.092-42.091 23.209 0 42.091 18.882 42.091 42.091v33.904c-.055 0-.11-.004-.165-.004h-76.669z"/><path d="m69.686 430.757c0-13.465-10.954-24.419-24.419-24.419s-24.42 10.955-24.42 24.419 10.955 24.419 24.42 24.419 24.419-10.954 24.419-24.419zm-33.839 0c0-5.194 4.226-9.419 9.42-9.419 5.193 0 9.419 4.226 9.419 9.419s-4.226 9.419-9.419 9.419c-5.195 0-9.42-4.225-9.42-9.419z"/><path d="m240.77 182.314c-9.399 0-17.047 7.647-17.047 17.047v28.179c0 9.4 7.647 17.047 17.047 17.047h28.18c9.399 0 17.047-7.647 17.047-17.047v-28.179c0-9.4-7.647-17.047-17.047-17.047zm30.227 17.048v28.179c0 1.129-.918 2.047-2.047 2.047h-28.18c-1.129 0-2.047-.918-2.047-2.047v-28.179c0-1.129.918-2.047 2.047-2.047h28.18c1.129-.001 2.047.918 2.047 2.047z"/><path d="m344.719 182.314c-9.399 0-17.047 7.647-17.047 17.047v28.179c0 9.4 7.647 17.047 17.047 17.047h28.18c9.399 0 17.047-7.647 17.047-17.047v-28.179c0-9.4-7.647-17.047-17.047-17.047zm30.226 17.048v28.179c0 1.129-.918 2.047-2.047 2.047h-28.18c-1.129 0-2.047-.918-2.047-2.047v-28.179c0-1.129.918-2.047 2.047-2.047h28.18c1.129-.001 2.047.918 2.047 2.047z"/></g></svg>