<svg xmlns:xlink="http://www.w3.org/1999/xlink" xmlns="http://www.w3.org/2000/svg" height="297" width="210"><defs><filter id="b" x="-.148" width="1.297" y="-.085" height="1.17" color-interpolation-filters="sRGB"><feGaussianBlur stdDeviation="1.116"></feGaussianBlur></filter><filter id="c" x="-.149" width="1.297" y="-.085" height="1.17" color-interpolation-filters="sRGB"><feGaussianBlur stdDeviation="1.338"></feGaussianBlur></filter><filter id="d" x="-.151" width="1.302" y="-.084" height="1.168" color-interpolation-filters="sRGB"><feGaussianBlur stdDeviation="1.656"></feGaussianBlur></filter><filter id="f" x="-.148" width="1.297" y="-.085" height="1.17" color-interpolation-filters="sRGB"><feGaussianBlur stdDeviation="1.116"></feGaussianBlur></filter><filter id="g" x="-.149" width="1.297" y="-.085" height="1.17" color-interpolation-filters="sRGB"><feGaussianBlur stdDeviation="1.338"></feGaussianBlur></filter><filter id="h" x="-.151" width="1.302" y="-.084" height="1.168" color-interpolation-filters="sRGB"><feGaussianBlur stdDeviation="1.656"></feGaussianBlur></filter><linearGradient id="a"><stop offset="0" stop-color="#99999f"></stop><stop offset="1" stop-opacity="0" stop-color="#99999f"></stop></linearGradient><linearGradient xlink:href="#a" id="e" x1=".771" y1=".01" x2=".001" y2="1.002"></linearGradient></defs><g transform="translate(431.727 -426.896) scale(1.20342)" filter="url(#b)" fill="orange"><path d="m237.973 179.962-8.181 18.709-.002.005-.019.043-.004.01c-.046.099-.09.2-.133.305l-.001.002-.008.02-.004.01.012-.03-.004-.006-.117.312a9.034 9.034 0 0 0-.57 3.156 9.009 9.009 0 0 0 9.025 9.024 9.01 9.01 0 0 0 9.026-9.024 9.035 9.035 0 0 0-.57-3.156l-.125-.335.002-.003-8.327-19.042z"></path></g><g transform="translate(431.727 -426.896) scale(1.20342)" filter="url(#c)" fill="orange"><path d="m255.723 165.358-9.825 22.472-.014.032-.005.011c-.055.12-.109.245-.16.369l-.018.041-.005.009-.007.015-.002-.003-.114.308a10.793 10.793 0 0 0-.614 2.702l3.344 7.651-.053.086c.162.493.29.993.38 1.496 1.969 1.712 4.476 2.676 7.087 2.676a10.813 10.813 0 0 0 10.828-10.826c0-1.293-.23-2.575-.682-3.785l-.121-.323.004-.006-10.023-22.925z"></path></g><g transform="translate(431.727 -426.896) scale(1.20342)" filter="url(#d)"><path d="m275.31 148.027-12.258 28.039-.003.01-.024.051c-.069.15-.134.303-.199.458l-.01.025-.005.01-.072.162 5.01 11.459-.055.085c.446 1.312.703 2.682.704 4.07 0 .312-.032.61-.057.911 2.105 1.272 4.5 1.977 6.962 1.977a13.5 13.5 0 0 0 13.514-13.514c0-1.613-.289-3.211-.853-4.722l-.12-.324.01-.014-12.544-28.683zm-12.815 27.66-.005.011.15.023-.145-.034z" fill="orange"></path></g><path transform="translate(449.089 -470.637) scale(1.20342)" d="M259.745 245.97c-5.407.018-10.075 3.612-11.601 8.762 4.286 2.373 7.02 6.84 7.02 11.774 0 1.114-.227 2.208-.499 3.287l.104.02-.206.696c-5.953 20.123-18.505 36.885-34.83 48.344 24.41-10.03 43.816-30.523 51.67-56.96l.034-.104c.363-1.172.549-2.391.549-3.618 0-6.747-5.457-12.2-12.204-12.2h-.037z" fill="url(#e)"></path><g transform="translate(403.08 -268.663) scale(.50745)" filter="url(#f)" stroke-miterlimit="0" stroke-width="2.607" stroke="orange" fill-opacity="0" fill="#dda135"><path fill="none" d="m237.973 179.962-8.181 18.709-.002.005-.019.043-.004.01c-.046.099-.09.2-.133.305l-.001.002-.008.02-.004.01.012-.03-.004-.006-.117.312a9.034 9.034 0 0 0-.57 3.156 9.009 9.009 0 0 0 9.025 9.024 9.01 9.01 0 0 0 9.026-9.024 9.035 9.035 0 0 0-.57-3.156l-.125-.335.002-.003-8.327-19.042z"></path></g><g transform="translate(403.08 -268.663) scale(.50745)" filter="url(#g)" stroke-miterlimit="0" stroke-width="2.607" stroke="orange" fill-opacity="0" fill="#dda135"><path fill="none" d="m255.723 165.358-9.825 22.472-.014.032-.005.011c-.055.12-.109.245-.16.369l-.018.041-.005.009-.007.015-.002-.003-.114.308a10.793 10.793 0 0 0-.614 2.702l3.344 7.651-.053.086c.162.493.29.993.38 1.496 1.969 1.712 4.476 2.676 7.087 2.676a10.813 10.813 0 0 0 10.828-10.826c0-1.293-.23-2.575-.682-3.785l-.121-.323.004-.006-10.023-22.925z"></path></g><g transform="translate(403.08 -268.663) scale(.50745)" filter="url(#h)" stroke-miterlimit="0" stroke-width="2.607" stroke="orange" fill-opacity="0" fill="#dda135"><path fill="none" d="m275.31 148.027-12.258 28.039-.003.01-.024.051c-.069.15-.134.303-.199.458l-.01.025-.005.01-.072.162 5.01 11.459-.055.085c.446 1.312.703 2.682.704 4.07 0 .312-.032.61-.057.911 2.105 1.272 4.5 1.977 6.962 1.977a13.5 13.5 0 0 0 13.514-13.514c0-1.613-.289-3.211-.853-4.722l-.12-.324.01-.014-12.544-28.683zm-12.815 27.66-.005.011.15.023-.145-.034z"></path></g><path fill="orange" d="M103.327 1.26 21.582 174.397l-.02.052-.182.397-.046.091a79.73 79.73 0 0 0-1.327 2.826l-.01.02-.078.182-.047.086.124-.268-.041-.062-1.167 2.893c-3.762 9.337-5.69 19.24-5.69 29.206 0 46.234 40.25 83.508 90.171 83.508 49.92 0 90.187-37.275 90.187-83.508 0-9.967-1.929-19.869-5.69-29.206l-1.255-3.104.021-.024L103.327 1.259z"></path></svg>