<svg id="Capa_1" enable-background="new 0 0 512.3 512.3" height="512" viewBox="0 0 512.3 512.3" width="512" xmlns="http://www.w3.org/2000/svg"><g><path d="m334.754 302.273-83.942-28.716v-29.976c21.643-15.98 31.642-43.642 31.365-69.707h7.563c15.658 0 28.397-12.739 28.397-28.397v-15.659c0-11.536-6.919-21.481-16.821-25.921v-34.397c0-38.322-31.178-69.5-69.5-69.5h-11.58c-4.143 0-7.5 3.358-7.5 7.5s3.357 7.5 7.5 7.5h11.58c30.052 0 54.5 24.449 54.5 54.5v23.283c-19.14-21.483-45.251-27.769-67.008-9.189-12.116 8.957-24.255 9.02-36.418.191-21.489-18.115-50.396-8.294-67.954 9.064v-23.349c0-30.051 24.448-54.5 54.5-54.5h18.12c4.143 0 7.5-3.358 7.5-7.5s-3.356-7.5-7.499-7.5h-18.12c-38.322 0-69.5 31.178-69.5 69.5v33.455c-11.162 3.828-19.211 14.42-19.211 26.864v15.659c0 15.658 12.739 28.397 28.397 28.397h7.563c-.276 26.065 9.722 53.728 31.365 69.707v29.975l-44.043 15.066c-3.919 1.341-6.009 5.604-4.669 9.524 2.53 4.339 5.705 5.896 9.524 4.668l20.943-7.164v54.31c0 6.095 6.854 9.185 11.41 6.4l24.427-14.924 10.545 18.754-14.563 137.109h-63.411v-113.797c0-4.142-3.357-7.5-7.5-7.5s-7.5 3.358-7.5 7.5v113.797h-37.077v-148.91c0-18.744 15.052-31.245 31.799-34.994 3.919-1.341 6.009-5.605 4.667-9.524-1.341-3.92-5.604-6.005-9.524-4.668-22.939 5.943-41.941 23.682-41.941 49.186v156.41c0 4.142 3.357 7.5 7.5 7.5h321.59c4.143 0 7.5-3.358 7.5-7.5v-52.25c0-4.142-3.357-7.5-7.5-7.5s-7.5 3.358-7.5 7.5v44.75h-42.406v-113.797c0-4.142-3.357-7.5-7.5-7.5s-7.5 3.358-7.5 7.5v113.797h-58.082l-14.566-137.107 10.546-18.755 24.427 14.924c4.557 2.783 11.41-.302 11.41-6.4v-54.31l60.842 20.814c13.654 4.671 22.828 17.5 22.828 31.924v71.47c0 4.142 3.357 7.5 7.5 7.5s7.5-3.358 7.5-7.5v-71.47c0-20.837-13.251-39.369-32.973-46.117zm-98.967-27.029-36.354 27.374-36.355-27.375v-22.996c20.088 8.739 52.622 8.739 72.71 0v22.997zm67.351-129.767c0 7.387-6.01 13.397-13.397 13.397h-7.561v-42.454h7.561c7.388 0 13.397 6.01 13.397 13.397zm-186.454 13.398h-7.561c-7.388 0-13.397-6.01-13.397-13.397v-15.659c0-7.387 6.01-13.397 13.397-13.397h7.561zm15.003 22.735v-83.226c11.428-9.9 28.591-14.043 41.551-3.117 18.636 13.545 37.239 13.456 55.811-.264 11.623-9.926 27.117-6.887 38.129 1.261v85.346c-.001 82.331-135.491 82.331-135.491 0zm13.121 108.924 9.4-3.191 31.896 24.017-41.297 25.231v-46.057zm65.769 60.57h-22.289l-9.834-17.491 20.979-12.814 20.979 12.814zm-33.867 146.196 13.936-131.196h17.572l13.938 131.196zm77.347-160.709-41.297-25.231 31.896-24.017 9.401 3.192z"/><path d="m167.05 154.743c4.143 0 7.5-3.358 7.5-7.5v-9.844c0-4.142-3.357-7.5-7.5-7.5s-7.5 3.358-7.5 7.5v9.844c0 4.142 3.358 7.5 7.5 7.5z"/><path d="m231.667 154.743c4.143 0 7.5-3.358 7.5-7.5v-9.844c0-4.142-3.357-7.5-7.5-7.5s-7.5 3.358-7.5 7.5v9.844c0 4.142 3.358 7.5 7.5 7.5z"/><path d="m199.432 214.333c14.507 0 26.309-11.802 26.309-26.309 0-4.142-3.357-7.5-7.5-7.5s-7.5 3.358-7.5 7.5c0 6.235-5.073 11.309-11.309 11.309s-11.309-5.073-11.309-11.309c0-4.142-3.357-7.5-7.5-7.5s-7.5 3.358-7.5 7.5c.001 14.508 11.802 26.309 26.309 26.309z"/><path d="m473.663 61.509h-124.249c-4.143 0-7.5 3.358-7.5 7.5v31.979c0 4.142 3.357 7.5 7.5 7.5h124.249c4.143 0 7.5-3.358 7.5-7.5v-31.979c0-4.142-3.358-7.5-7.5-7.5zm-116.749 15h78.186v16.979h-78.187v-16.979zm109.249 16.98h-16.063v-16.98h16.063z"/><path d="m473.663 124.092h-124.249c-4.143 0-7.5 3.358-7.5 7.5v31.979c0 4.142 3.357 7.5 7.5 7.5h124.249c4.143 0 7.5-3.358 7.5-7.5v-31.979c0-4.142-3.358-7.5-7.5-7.5zm-116.749 15h47.125v16.979h-47.125zm109.249 16.98h-47.124v-16.979h47.124z"/><path d="m473.663 186.675h-124.249c-4.143 0-7.5 3.358-7.5 7.5v31.979c0 4.142 3.357 7.5 7.5 7.5h124.249c4.143 0 7.5-3.358 7.5-7.5v-31.979c0-4.142-3.358-7.5-7.5-7.5zm-116.749 15h78.186v16.979h-78.187v-16.979zm109.249 16.98h-16.063v-16.979h16.063z"/></g></svg>