<svg id="Capa_1" enable-background="new 0 0 512 512" height="512" viewBox="0 0 512 512" width="512" xmlns="http://www.w3.org/2000/svg"><g><path d="m494.771 233.724-29.91-7.768c-1.065-7.468-2.53-14.883-4.375-22.146l24.634-18.604c8.364-6.316 11.404-17.49 7.393-27.174-4.012-9.683-14.061-15.438-24.443-13.987l-30.599 4.268c-3.849-6.474-8.047-12.752-12.542-18.752l15.658-26.646c5.31-9.036 3.842-20.523-3.569-27.935-7.412-7.41-18.899-8.877-27.935-3.568l-26.644 15.658c-6-4.494-12.278-8.692-18.752-12.542l4.268-30.599c1.448-10.381-4.304-20.432-13.987-24.442s-20.857-.971-27.173 7.393l-18.605 24.634c-7.263-1.845-14.677-3.31-22.145-4.375l-7.769-29.911c-2.635-10.144-11.796-17.228-22.276-17.228-10.481 0-19.641 7.085-22.276 17.229l-7.769 29.911c-7.468 1.065-14.882 2.529-22.145 4.375l-18.604-24.634c-6.317-8.364-17.49-11.403-27.173-7.393-9.684 4.011-15.435 14.063-13.987 24.442l4.268 30.599c-6.473 3.848-12.751 8.047-18.752 12.542l-26.646-15.658c-9.036-5.311-20.523-3.842-27.935 3.569-7.41 7.412-8.878 18.898-3.568 27.935l15.658 26.646c-4.494 6-8.693 12.279-12.542 18.752l-30.6-4.268c-10.379-1.445-20.431 4.303-24.442 13.987s-.97 20.857 7.393 27.174l24.634 18.604c-1.845 7.263-3.31 14.677-4.375 22.145l-29.91 7.769c-10.144 2.633-17.229 11.794-17.229 22.274 0 10.481 7.085 19.641 17.229 22.276l29.91 7.769c1.065 7.468 2.53 14.883 4.375 22.146l-24.634 18.602c-8.364 6.316-11.404 17.49-7.393 27.174 4.012 9.683 14.061 15.438 24.442 13.987l30.599-4.268c3.849 6.474 8.048 12.752 12.542 18.753l-15.658 26.646c-5.31 9.037-3.842 20.523 3.568 27.934 7.411 7.411 18.898 8.879 27.935 3.569l26.646-15.658c6.001 4.494 12.279 8.693 18.753 12.542l-4.268 30.599c-1.448 10.38 4.303 20.432 13.987 24.443 9.685 4.011 20.858.97 27.173-7.393l18.604-24.634c7.263 1.845 14.677 3.31 22.145 4.375l7.769 29.91c2.635 10.143 11.795 17.228 22.276 17.228 10.48 0 19.641-7.085 22.276-17.229l7.769-29.91c7.468-1.065 14.882-2.53 22.145-4.375l18.604 24.634c6.316 8.364 17.491 11.402 27.174 7.394 9.683-4.011 15.435-14.062 13.987-24.442l-4.268-30.599c6.473-3.849 12.752-8.047 18.752-12.542l26.646 15.658c9.038 5.311 20.524 3.842 27.935-3.569s8.878-18.897 3.569-27.934l-15.658-26.646c4.494-6.001 8.693-12.279 12.542-18.753l30.599 4.268c10.385 1.448 20.432-4.304 24.443-13.987s.971-20.857-7.393-27.173l-24.634-18.604c1.845-7.263 3.31-14.677 4.375-22.146l29.91-7.769c10.142-2.635 17.227-11.795 17.227-22.276 0-10.48-7.084-19.641-17.229-22.276zm-3.771 30.033-34.808 9.041c-2.992.777-5.201 3.311-5.563 6.382-1.194 10.134-3.184 20.202-5.914 29.924-.834 2.972.237 6.152 2.701 8.012l28.664 21.646c2.913 2.2 3.972 6.091 2.575 9.463-1.396 3.372-4.895 5.375-8.512 4.871l-35.6-4.965c-3.059-.423-6.063 1.063-7.574 3.753-4.991 8.879-10.696 17.408-16.957 25.351-1.913 2.427-2.142 5.778-.576 8.443l18.22 31.005c1.849 3.147 1.338 7.147-1.243 9.728-2.58 2.581-6.581 3.093-9.729 1.243l-31.005-18.219c-2.664-1.565-6.016-1.337-8.443.576-7.942 6.261-16.471 11.966-25.35 16.957-2.69 1.512-4.18 4.518-3.753 7.574l4.965 35.6c.504 3.615-1.499 7.115-4.871 8.512s-7.263.338-9.463-2.575l-21.647-28.664c-1.86-2.463-5.041-3.537-8.013-2.701-9.722 2.73-19.789 4.72-29.923 5.913-3.07.362-5.604 2.571-6.382 5.563l-9.041 34.81c-.917 3.533-4.108 6-7.758 6s-6.84-2.467-7.757-6l-9.041-34.807c-.777-2.993-3.312-5.202-6.382-5.563-10.134-1.193-20.202-3.183-29.923-5.913-.671-.188-1.353-.28-2.027-.28-2.313 0-4.545 1.073-5.985 2.98l-21.647 28.664c-2.2 2.913-6.09 3.971-9.463 2.575-3.372-1.396-5.375-4.897-4.871-8.512l4.965-35.6c.426-3.057-1.063-6.062-3.753-7.574-8.879-4.991-17.408-10.696-25.351-16.958-2.426-1.913-5.778-2.142-8.443-.576l-31.005 18.22c-3.147 1.85-7.147 1.338-9.728-1.243s-3.092-6.581-1.243-9.728l18.22-31.005c1.565-2.665 1.337-6.016-.576-8.443-6.261-7.942-11.966-16.471-16.957-25.351-1.512-2.689-4.511-4.179-7.574-3.753l-35.6 4.965c-3.612.507-7.115-1.499-8.512-4.871s-.338-7.264 2.575-9.463l28.664-21.646c2.463-1.86 3.535-5.04 2.701-8.012-2.729-9.722-4.719-19.79-5.914-29.924-.361-3.071-2.57-5.604-5.563-6.382l-34.81-9.043c-3.533-.917-6-4.107-6-7.757s2.468-6.84 6-7.758l34.808-9.041c2.993-.777 5.202-3.311 5.563-6.382 1.194-10.134 3.184-20.202 5.914-29.924.834-2.972-.237-6.152-2.701-8.012l-28.664-21.646c-2.913-2.2-3.972-6.092-2.575-9.463 1.397-3.372 4.901-5.372 8.512-4.871l35.6 4.965c3.053.423 6.062-1.063 7.574-3.753 4.991-8.879 10.696-17.408 16.957-25.35 1.913-2.427 2.142-5.778.576-8.443l-18.22-31.005c-1.849-3.147-1.338-7.147 1.243-9.729s6.582-3.092 9.728-1.243l31.005 18.22c2.663 1.564 6.015 1.337 8.443-.576 7.943-6.261 16.472-11.967 25.351-16.957 2.69-1.512 4.18-4.518 3.753-7.574l-4.965-35.6c-.504-3.614 1.499-7.115 4.871-8.511 3.373-1.399 7.264-.338 9.463 2.574l21.647 28.664c1.86 2.463 5.04 3.536 8.012 2.701 9.723-2.73 19.791-4.719 29.924-5.913 3.07-.362 5.604-2.571 6.382-5.563l9.042-34.81c.917-3.532 4.107-6 7.757-6s6.84 2.467 7.758 6l9.041 34.808c.777 2.993 3.312 5.202 6.382 5.563 10.133 1.193 20.201 3.183 29.924 5.913 2.972.836 6.152-.237 8.012-2.701l21.647-28.664c2.201-2.913 6.091-3.971 9.463-2.574 3.372 1.396 5.375 4.897 4.871 8.512l-4.965 35.6c-.426 3.057 1.063 6.062 3.753 7.574 8.881 4.992 17.41 10.697 25.35 16.957 2.428 1.914 5.779 2.142 8.443.577l31.005-18.22c3.146-1.849 7.148-1.338 9.728 1.243 2.581 2.581 3.092 6.582 1.243 9.729l-18.22 31.005c-1.565 2.665-1.337 6.016.576 8.443 6.261 7.942 11.966 16.471 16.957 25.35 1.512 2.69 4.515 4.177 7.574 3.753l35.6-4.965c3.614-.508 7.116 1.5 8.512 4.871 1.397 3.372.338 7.264-2.575 9.463l-28.664 21.646c-2.463 1.86-3.535 5.04-2.701 8.012 2.729 9.722 4.719 19.79 5.914 29.924.361 3.071 2.57 5.604 5.563 6.382l34.809 9.041c3.532.918 6 4.108 6 7.758s-2.467 6.84-6 7.757z"/><path d="m256 75c-42.555 0-83.907 15.071-116.439 42.436-3.17 2.666-3.578 7.397-.912 10.567 2.666 3.169 7.397 3.579 10.567.911 29.834-25.094 67.757-38.914 106.784-38.914 91.533 0 166 74.467 166 166s-74.467 166-166 166-166-74.467-166-166c0-39.027 13.82-76.95 38.915-106.783 2.667-3.17 2.258-7.901-.911-10.567-3.171-2.667-7.902-2.258-10.567.912-27.366 32.531-42.437 73.883-42.437 116.438 0 99.804 81.196 181 181 181s181-81.196 181-181-81.196-181-181-181z"/><path d="m199.079 316.55c4.295 0 8.635-1.225 12.466-3.785l40.465-27.038c1.306.174 2.637.273 3.99.273 13.953 0 25.712-9.575 29.051-22.5h54.449c4.142 0 7.5-3.358 7.5-7.5s-3.358-7.5-7.5-7.5h-54.449c-1.196-4.631-3.479-8.827-6.551-12.311v-48.689c0-12.407-10.093-22.5-22.5-22.5s-22.5 10.093-22.5 22.5v48.689c-3.031 3.438-5.289 7.57-6.498 12.127l-40.458 27.033c-10.315 6.893-13.101 20.893-6.208 31.208 4.333 6.484 11.474 9.993 18.743 9.993zm56.921-45.55c-8.271 0-15-6.729-15-15s6.729-15 15-15 15 6.729 15 15-6.729 15-15 15zm0-91c4.136 0 7.5 3.364 7.5 7.5v39.449c-2.398-.619-4.911-.949-7.5-.949s-5.102.33-7.5.949v-39.449c0-4.136 3.364-7.5 7.5-7.5zm-64.312 112.593c.391-1.965 1.523-3.66 3.189-4.773l32.808-21.922c1.697 4.839 4.597 9.114 8.345 12.465l-32.819 21.929c-3.438 2.297-8.104 1.37-10.403-2.069-1.113-1.665-1.511-3.665-1.12-5.63z"/><path d="m256 377c66.72 0 121-54.28 121-121s-54.28-121-121-121-121 54.28-121 121 54.28 121 121 121zm0-227c58.449 0 106 47.551 106 106s-47.551 106-106 106-106-47.551-106-106 47.551-106 106-106z"/></g></svg>